<?xml version="1.0" standalone="no"?>
<!DOCTYPE svg PUBLIC "-//W3C//DTD SVG 20010904//EN"
 "http://www.w3.org/TR/2001/REC-SVG-20010904/DTD/svg10.dtd">
<svg version="1.0" xmlns="http://www.w3.org/2000/svg"
 width="260.000000pt" height="260.000000pt" viewBox="0 0 260.000000 260.000000"
 preserveAspectRatio="xMidYMid meet">
<metadata>
Created by potrace 1.14, written by Peter Selinger 2001-2017
</metadata>
<g transform="translate(0.000000,260.000000) scale(0.100000,-0.100000)"
fill="#000000" stroke="none">
<path d="M2214 2510 c-7 -7 -321 -9 -933 -8 l-923 3 6 -45 c3 -25 37 -400 76
-835 39 -434 84 -922 98 -1084 l27 -294 115 -32 c63 -18 229 -63 369 -101
l254 -69 136 37 c75 19 240 64 368 99 l232 63 5 40 c3 23 14 147 26 276 28
324 57 664 75 860 8 91 26 298 40 460 14 162 32 368 40 456 8 89 15 167 15
173 0 14 -13 14 -26 1z m-1466 -127 l3 -53 44 0 44 0 3 53 3 52 48 1 47 1 0
-153 0 -154 -50 0 -50 0 0 50 0 50 -45 0 -45 0 0 -50 0 -50 -49 0 -50 0 -3
151 c-2 83 -1 153 2 155 2 3 25 4 50 2 l45 -3 3 -52z m522 2 l0 -55 -45 0 -45
0 0 -100 0 -100 -50 0 -50 0 0 100 0 100 -45 0 -45 0 0 50 0 49 78 4 c42 1
105 4 140 5 l62 2 0 -55z m185 -2 c16 -29 32 -53 35 -52 3 0 19 23 35 52 30
51 31 52 83 55 l52 3 0 -155 0 -156 -50 0 -49 0 -3 73 -3 72 -30 -47 c-16 -27
-33 -48 -36 -48 -4 0 -21 21 -38 48 l-31 47 0 -72 0 -73 -49 0 c-60 0 -57 -8
-53 178 l3 133 52 -3 c50 -3 52 -4 82 -55z m363 -50 l3 -103 69 0 70 0 0 -50
0 -50 -125 0 -125 0 0 149 c0 167 -3 161 75 157 l30 -1 3 -102z m282 -359 c0
-19 -37 -431 -79 -894 -16 -173 -32 -355 -36 -405 -3 -49 -11 -145 -17 -212
l-11 -121 -36 -7 c-20 -3 -47 -9 -61 -12 -14 -3 -22 -2 -18 2 8 9 -20 39 -44
48 -10 3 -15 12 -12 20 3 9 -3 16 -15 20 -12 3 -24 13 -28 24 -4 10 -22 33
-40 50 -18 18 -33 40 -33 48 0 12 -6 15 -22 10 -19 -6 -21 -5 -10 6 17 18 15
27 -5 32 -18 4 -11 8 61 36 21 9 24 17 30 113 4 57 13 150 21 208 7 58 17 152
21 209 l7 104 -366 -6 -366 -7 -5 33 c-3 17 -8 62 -11 100 l-7 67 69 1 c37 1
211 1 385 -1 l317 -2 5 33 c3 19 7 67 8 107 l3 74 -499 -1 c-275 -1 -502 -4
-505 -6 -4 -5 35 -495 45 -562 l5 -33 219 0 c120 0 224 -2 232 -5 10 -4 12
-36 8 -154 -3 -82 -8 -152 -12 -156 -3 -4 -55 6 -115 22 -89 24 -108 32 -110
48 -1 11 -5 45 -8 76 l-6 56 -92 6 c-51 3 -95 2 -100 -2 -10 -10 17 -299 29
-309 5 -5 86 -31 179 -59 94 -29 183 -56 199 -62 l28 -11 -5 -126 c-2 -71 -9
-130 -16 -137 -7 -7 -7 -14 0 -24 9 -9 8 -13 0 -13 -7 0 -9 -4 -6 -10 3 -5 2
-10 -3 -10 -19 0 -623 157 -628 163 -1 1 -9 94 -18 207 -10 113 -26 295 -36
405 -25 260 -90 993 -90 1017 0 17 33 18 800 18 736 0 800 -1 800 -16z m-560
-961 c0 -44 -20 -216 -26 -222 -2 -2 -10 2 -19 9 -9 7 -13 15 -11 18 3 3 -8
22 -24 42 -18 23 -28 44 -24 54 3 9 1 16 -5 16 -6 0 -16 12 -22 28 -6 15 -16
39 -24 54 -13 27 -13 27 29 31 22 2 60 4 84 5 l42 2 0 -37z"/>
<path d="M1410 1361 c0 -6 5 -13 10 -16 6 -3 10 1 10 9 0 9 -4 16 -10 16 -5 0
-10 -4 -10 -9z"/>
</g>
</svg>
